<svg id="svg" xmlns="http://www.w3.org/2000/svg" xmlns:xlink="http://www.w3.org/1999/xlink" width="400" height="400" viewBox="0, 0, 400,400"><g id="svgg"><path id="path0" d="M199.200 93.305 L 199.200 106.511 197.400 106.256 C 195.646 106.006,195.590 105.696,195.200 94.009 C 194.846 83.412,194.637 81.988,193.400 81.751 C 192.114 81.504,192.000 82.526,192.000 94.341 C 192.000 106.430,191.909 107.200,190.484 107.200 C 189.071 107.200,188.948 106.332,188.684 94.466 C 188.387 81.149,188.250 80.447,186.115 81.267 C 184.969 81.706,184.800 83.457,184.800 94.857 C 184.800 106.818,184.671 108.013,183.305 108.744 C 180.938 110.011,180.800 109.278,180.800 95.408 C 180.800 83.339,180.687 82.304,179.400 82.551 C 178.151 82.790,177.957 84.288,177.600 96.400 C 177.243 108.512,177.049 110.010,175.800 110.249 C 174.514 110.496,174.400 109.474,174.400 97.659 C 174.400 90.586,174.112 84.800,173.760 84.800 C 171.615 84.800,171.200 87.212,171.200 99.667 C 171.200 111.797,171.102 112.639,169.652 113.018 C 167.512 113.578,167.200 112.324,167.200 103.163 L 167.200 95.257 163.487 96.848 C 161.445 97.724,158.025 99.904,155.887 101.694 L 152.000 104.949 152.000 114.874 C 152.000 120.939,151.690 124.800,151.202 124.800 C 147.111 124.800,132.840 144.090,128.120 156.000 C 117.438 182.954,126.974 221.712,148.288 237.969 C 150.831 239.909,150.975 240.289,151.091 245.407 C 151.336 256.134,151.793 257.507,156.672 262.158 C 159.115 264.487,161.722 266.585,162.466 266.821 C 163.503 267.150,163.894 268.465,164.150 272.480 C 164.366 275.876,164.887 277.959,165.636 278.422 C 167.538 279.598,167.983 276.754,167.613 265.789 C 167.225 254.300,167.605 251.099,169.282 251.742 C 170.184 252.088,170.400 255.061,170.400 267.126 C 170.400 282.154,170.724 284.000,173.360 284.000 C 174.176 284.000,174.400 280.824,174.400 269.275 C 174.400 255.275,174.474 254.569,175.899 254.942 C 177.314 255.312,177.379 256.215,177.072 271.203 C 176.750 286.894,176.767 287.086,178.534 288.324 C 181.331 290.283,181.574 288.971,181.588 271.875 C 181.600 256.547,181.640 256.160,183.200 256.568 C 184.737 256.970,184.800 257.659,184.800 274.065 C 184.800 289.964,184.904 291.199,186.305 291.949 C 188.473 293.109,188.800 290.585,188.800 272.700 C 188.800 259.811,188.976 257.600,190.000 257.600 C 191.021 257.600,191.209 259.782,191.259 272.200 C 191.330 289.529,191.830 293.869,193.800 294.248 C 195.061 294.491,195.200 293.690,195.200 286.184 C 195.200 268.038,196.090 258.400,197.766 258.400 C 199.150 258.400,199.265 258.959,199.051 264.600 C 198.406 281.586,199.131 295.200,200.679 295.200 C 202.422 295.200,203.189 287.220,203.196 269.000 C 203.199 260.286,203.406 258.400,204.357 258.400 C 205.326 258.400,205.555 261.331,205.757 276.335 C 206.002 294.391,206.384 296.892,208.465 294.046 C 209.363 292.819,209.600 288.846,209.600 275.047 C 209.600 258.133,209.649 257.600,211.200 257.600 C 212.752 257.600,212.800 258.133,212.800 275.200 C 212.800 288.753,213.030 292.797,213.800 292.788 C 216.582 292.754,216.766 291.668,216.984 273.973 C 217.181 257.992,217.325 256.397,218.600 256.152 C 219.894 255.903,220.004 257.086,220.056 271.741 C 220.118 289.271,220.435 291.413,222.612 289.008 C 223.778 287.720,223.997 285.181,224.183 270.822 C 224.345 258.339,224.652 254.048,225.400 253.799 C 226.166 253.544,226.420 256.146,226.487 264.933 C 226.615 281.908,227.161 285.808,229.200 284.308 C 230.978 283.000,230.957 283.234,231.106 263.600 C 231.185 253.153,231.389 251.200,232.400 251.200 C 233.417 251.200,233.600 253.156,233.600 264.000 C 233.600 271.040,233.870 276.789,234.200 276.775 C 236.049 276.696,237.600 274.365,237.600 271.664 C 237.600 269.045,238.224 268.116,243.000 263.613 L 248.400 258.522 248.895 249.228 L 249.390 239.933 252.716 237.086 C 260.196 230.683,271.544 212.019,273.844 202.334 L 274.779 198.400 280.901 198.400 C 290.648 198.400,292.438 195.501,291.451 181.318 C 290.745 171.170,289.165 169.366,281.308 169.729 L 275.670 169.989 274.660 164.999 C 272.304 153.357,264.668 139.899,254.630 129.698 L 248.800 123.772 248.800 114.378 C 248.800 105.008,248.794 104.980,246.600 103.562 C 245.390 102.781,242.110 99.784,239.311 96.903 L 234.223 91.664 234.415 98.432 C 234.786 111.457,234.570 113.600,232.886 113.600 C 230.619 113.600,230.400 112.225,230.400 98.028 C 230.400 85.659,230.317 84.965,228.800 84.568 C 227.246 84.162,227.200 84.544,227.200 97.760 C 227.200 109.843,227.058 111.317,225.935 110.886 C 225.239 110.619,224.519 110.400,224.335 110.400 C 224.151 110.400,224.000 104.532,224.000 97.360 C 224.000 84.812,223.587 82.400,221.440 82.400 C 221.088 82.400,220.800 88.365,220.800 95.656 L 220.800 108.911 219.000 108.656 C 217.232 108.405,217.193 108.156,216.800 94.799 C 216.500 84.587,216.151 81.223,215.400 81.299 C 214.850 81.354,214.040 81.445,213.600 81.500 C 213.104 81.562,212.800 86.467,212.800 94.400 C 212.800 106.337,212.700 107.200,211.315 107.200 C 209.950 107.200,209.783 106.114,209.251 93.803 C 208.933 86.435,208.545 80.279,208.390 80.123 C 206.936 78.670,206.400 82.302,206.400 93.600 C 206.400 105.937,205.886 108.606,203.892 106.612 C 202.835 105.555,202.597 102.865,202.491 90.770 C 202.405 80.947,202.307 80.333,200.800 80.220 C 199.260 80.104,199.200 80.593,199.200 93.305 M243.234 107.690 C 244.147 110.091,244.231 117.598,243.360 118.968 C 241.539 121.834,238.442 116.595,237.891 109.716 L 237.356 103.033 239.912 104.355 C 241.318 105.082,242.813 106.583,243.234 107.690 M162.783 109.000 C 163.076 111.310,163.482 113.793,163.686 114.518 C 164.049 115.814,159.725 119.200,157.706 119.200 C 155.793 119.200,156.573 107.450,158.578 106.045 C 161.478 104.014,162.216 104.533,162.783 109.000 M210.853 112.041 C 251.074 119.165,278.873 159.823,269.155 197.312 C 268.031 201.651,266.769 205.321,266.350 205.468 C 265.932 205.616,265.781 206.046,266.015 206.424 C 266.494 207.200,260.464 219.166,258.970 220.403 C 258.436 220.844,257.891 221.710,257.759 222.327 C 257.005 225.828,240.750 241.317,238.925 240.273 C 238.416 239.982,238.271 240.042,238.602 240.407 C 239.284 241.159,230.371 246.476,229.417 245.887 C 229.078 245.677,228.800 245.825,228.800 246.214 C 228.800 247.153,217.695 250.894,211.424 252.068 C 205.083 253.254,189.192 252.602,182.800 250.894 C 172.710 248.196,150.190 234.747,151.000 231.902 C 151.110 231.516,150.879 231.290,150.486 231.400 C 149.666 231.630,141.335 222.398,141.876 221.858 C 142.072 221.662,141.377 220.578,140.331 219.450 C 139.285 218.322,138.624 217.084,138.862 216.699 C 139.100 216.315,138.963 216.000,138.559 216.000 C 135.312 216.000,128.844 193.329,128.817 181.852 C 128.719 140.085,170.146 104.831,210.853 112.041 M186.800 119.936 C 183.720 120.715,179.085 122.309,176.500 123.477 C 173.916 124.644,171.443 125.600,171.005 125.600 C 164.071 125.600,145.621 144.758,139.803 158.000 C 129.323 181.851,137.104 217.155,155.497 229.206 C 156.646 229.959,157.352 230.986,157.065 231.488 C 156.778 231.989,156.820 232.151,157.158 231.847 C 157.496 231.543,158.723 232.196,159.886 233.298 C 162.581 235.851,171.834 241.327,174.648 242.033 C 175.832 242.330,176.800 242.816,176.800 243.112 C 176.800 243.409,177.732 243.728,178.871 243.822 C 180.011 243.917,181.361 244.255,181.871 244.574 C 182.382 244.894,183.160 245.215,183.600 245.289 C 184.040 245.362,186.536 245.822,189.147 246.311 C 195.780 247.553,208.049 247.428,212.172 246.076 C 217.774 244.239,225.128 242.186,226.200 242.159 C 226.750 242.145,227.200 241.858,227.200 241.521 C 227.200 241.184,227.902 240.685,228.761 240.412 C 242.545 236.038,258.821 216.065,263.730 197.501 C 275.478 153.079,231.406 108.642,186.800 119.936 M210.000 124.336 C 218.983 125.716,224.132 127.739,232.350 133.113 C 241.299 138.964,251.894 150.117,250.626 152.350 C 250.361 152.818,250.440 152.931,250.803 152.602 C 252.697 150.885,257.739 163.673,259.241 174.000 C 266.932 226.911,204.299 262.167,162.741 228.318 C 134.563 205.366,132.357 164.907,157.977 140.941 C 163.202 136.053,170.712 130.979,171.522 131.789 C 171.785 132.052,172.000 131.825,172.000 131.286 C 172.000 130.747,172.360 130.528,172.800 130.800 C 173.240 131.072,173.600 130.971,173.600 130.576 C 173.600 129.529,177.569 127.886,178.584 128.513 C 179.128 128.850,179.213 128.668,178.812 128.020 C 178.390 127.336,178.547 127.116,179.282 127.361 C 179.889 127.563,180.825 127.289,181.363 126.752 C 181.900 126.214,185.503 125.344,189.370 124.817 C 193.236 124.291,196.940 123.753,197.600 123.623 C 200.204 123.108,203.095 123.274,210.000 124.336 M198.400 130.400 C 198.400 133.365,198.563 133.600,200.621 133.600 C 202.730 133.600,202.827 133.438,202.537 130.400 C 202.274 127.642,201.967 127.200,200.316 127.200 C 198.614 127.200,198.400 127.557,198.400 130.400 M171.639 136.757 C 169.678 138.924,172.832 143.970,175.078 142.260 C 175.805 141.706,176.548 141.153,176.729 141.031 C 177.179 140.727,174.158 135.200,173.542 135.200 C 173.270 135.200,172.414 135.901,171.639 136.757 M225.820 138.002 L 224.074 140.665 225.991 141.921 C 228.020 143.250,232.058 139.635,230.806 137.610 C 229.332 135.225,227.548 135.365,225.820 138.002 M243.600 155.253 C 242.280 156.156,240.480 157.191,239.600 157.552 C 237.885 158.256,214.022 172.629,207.922 176.632 C 205.416 178.277,203.887 178.819,203.122 178.335 C 201.490 177.302,198.077 177.443,196.928 178.592 C 196.139 179.381,193.818 177.449,185.572 169.136 L 175.208 158.688 173.415 160.597 L 171.622 162.506 184.995 175.600 C 192.350 182.802,199.029 188.806,199.836 188.943 C 201.213 189.176,206.307 185.612,206.572 184.230 C 206.770 183.198,210.080 180.854,217.038 176.819 C 220.647 174.726,227.560 170.570,232.400 167.582 C 237.240 164.594,243.000 161.226,245.200 160.098 C 247.400 158.969,249.319 157.976,249.464 157.892 C 249.875 157.653,247.079 153.599,246.508 153.605 C 246.229 153.608,244.920 154.350,243.600 155.253 M152.187 155.443 C 150.354 157.820,150.428 158.373,152.734 159.566 C 155.748 161.124,155.588 161.148,157.048 158.920 C 158.492 156.716,153.795 153.357,152.187 155.443 M286.000 173.600 C 286.310 174.102,284.542 174.400,281.247 174.400 C 278.282 174.400,276.000 174.052,276.000 173.600 C 276.000 173.156,278.118 172.800,280.753 172.800 C 283.367 172.800,285.728 173.160,286.000 173.600 M286.000 176.800 C 286.272 177.240,286.383 177.622,286.247 177.650 C 280.689 178.773,275.458 178.324,276.397 176.806 C 277.043 175.760,285.354 175.755,286.000 176.800 M145.362 180.505 C 143.013 182.853,144.867 185.600,148.800 185.600 C 152.795 185.600,152.800 185.597,152.800 182.949 C 152.800 180.333,147.331 178.536,145.362 180.505 M248.571 180.496 C 246.213 182.853,248.060 185.684,251.800 185.444 C 255.435 185.211,255.600 185.096,255.600 182.800 C 255.600 180.411,250.370 178.696,248.571 180.496 M286.744 180.709 C 287.318 181.638,284.447 182.375,280.200 182.389 C 277.706 182.397,276.800 182.080,276.800 181.200 C 276.800 179.848,285.933 179.397,286.744 180.709 M287.200 184.825 C 287.200 186.244,284.942 186.604,280.187 185.943 C 275.763 185.328,275.700 185.286,278.400 184.758 C 282.832 183.892,287.200 183.925,287.200 184.825 M286.400 188.800 C 286.400 189.252,284.118 189.600,281.153 189.600 C 277.858 189.600,276.090 189.302,276.400 188.800 C 276.672 188.360,279.033 188.000,281.647 188.000 C 284.282 188.000,286.400 188.356,286.400 188.800 M283.782 192.584 C 282.122 192.757,279.602 192.754,278.182 192.577 C 276.762 192.401,278.120 192.259,281.200 192.263 C 284.280 192.266,285.442 192.411,283.782 192.584 M243.392 205.589 C 241.967 207.871,242.112 208.285,244.912 209.939 C 248.976 212.340,251.563 208.628,247.774 205.833 C 244.754 203.605,244.636 203.598,243.392 205.589 M152.039 206.342 C 150.291 207.686,150.201 208.009,151.213 209.325 C 151.837 210.136,152.424 210.925,152.518 211.078 C 152.876 211.659,157.600 208.414,157.600 207.588 C 157.600 204.852,154.796 204.224,152.039 206.342 M171.663 224.529 C 170.442 226.059,169.569 227.417,169.722 227.547 C 170.462 228.176,173.753 229.697,173.871 229.465 C 173.945 229.319,174.801 228.063,175.773 226.673 L 177.541 224.145 175.711 222.947 C 173.981 221.813,173.762 221.899,171.663 224.529 M225.353 223.031 C 223.188 225.423,226.860 230.949,229.421 229.155 C 231.671 227.579,231.631 226.547,229.213 223.800 C 226.920 221.195,227.000 221.211,225.353 223.031 M197.600 233.135 C 197.600 236.283,198.451 237.600,200.486 237.600 C 202.186 237.600,202.400 237.242,202.400 234.400 C 202.400 231.378,202.267 231.200,200.000 231.200 C 197.995 231.200,197.600 231.518,197.600 233.135 M163.200 254.495 C 163.200 260.646,162.670 261.103,159.671 257.539 C 157.910 255.445,157.600 254.303,157.600 249.898 L 157.600 244.719 160.400 246.854 C 163.122 248.930,163.200 249.144,163.200 254.495 M242.854 255.669 C 242.615 256.623,241.515 257.996,240.409 258.720 L 238.400 260.037 238.400 253.804 C 238.400 247.862,238.503 247.508,240.600 246.231 L 242.800 244.892 243.045 249.413 C 243.180 251.899,243.094 254.714,242.854 255.669 " stroke="none" fill="#000000" fill-rule="evenodd"></path></g></svg>